<svg xmlns="http://www.w3.org/2000/svg" viewBox="0 0 48 48">
  <path fill="#25d366" d="M24 4C12.954 4 4 12.954 4 24s8.954 20 20 20 20-8.954 20-20S35.046 4 24 4zm8.2 28.8c-.4 1.2-2.2 2.2-3.6 2.5-.9.2-2.1.4-6.2-.7-5.2-1.4-8.5-4.8-8.8-5-.3-.2-2.3-3.1-2.3-5.9 0-2.8 1.5-4.2 2-4.8.5-.6 1.1-.8 1.5-.8.4 0 .8 0 1.1.1.4.1.9-.1 1.4 1.1.5 1.2 1.7 4.1 1.8 4.4.2.3.3.7.1 1.1-.2.4-.3.6-.6.9-.3.3-.6.7-.9.9-.3.3-.6.6-.3 1.2.4.6 1.6 2.5 3.4 4 2.3 2 4.3 2.6 4.9 2.9.6.3 1 .2 1.3-.1.3-.3 1.4-1.6 1.8-2.2.4-.6.7-.5 1.2-.3.5.2 3.2 1.5 3.8 1.8.6.3 1 .4 1.1.6.2.2.2 1.1-.2 2.3z"/>
</svg> 